<?xml version="1.0" encoding="utf-8"?>
<!-- Generator: Adobe Illustrator 25.0.0, SVG Export Plug-In . SVG Version: 6.00 Build 0)  -->
<svg version="1.1" id="Layer_1" xmlns="http://www.w3.org/2000/svg" xmlns:xlink="http://www.w3.org/1999/xlink" x="0px" y="0px"
	 viewBox="0 0 345.5 116" style="enable-background:new 0 0 345.5 116;" xml:space="preserve">
<style type="text/css">
	.st0{fill:#0A2351;}
	.st1{fill:#B6922E;}
	.st2{fill:#B5922F;}
	.st3{fill:#FFFFFF;}
</style>
<g>
	<g>
		<g>
			<path class="st0" d="M155.5,57.2h2.7l-0.8,8.4H134v-2.4l1.3-0.3c0.8-0.2,1.3-0.4,1.5-0.8c0.2-0.4,0.3-1.1,0.3-2.2V43.5
				c0-1.1-0.1-1.8-0.3-2.2c-0.2-0.4-0.7-0.7-1.4-0.8l-1.3-0.3v-2.4H156l1.2,6.8l-2.8,0.5c-0.7-1.4-1.3-2.3-1.6-2.9
				c-0.7-1.2-2-1.8-3.7-1.8h-6.5v9.3h3.7c1.4,0,2.3-0.2,2.7-0.5c0.4-0.3,0.7-1,1-2.1l2.7-0.1v8.2l-2.7,0.3c-0.4-1.3-0.7-2.1-0.9-2.3
				c-0.4-0.3-1.3-0.5-2.7-0.6h-3.7v10.2h7.3c1.1,0,1.9-0.1,2.5-0.4c0.6-0.3,1-0.7,1.4-1.3c0.3-0.5,0.8-1.5,1.4-3L155.5,57.2z"/>
			<path class="st0" d="M187.7,61.9l0.9,1.7c-0.4,0.7-1,1.3-1.9,1.7c-0.9,0.4-1.7,0.7-2.7,0.7c-1.2,0-2.3-0.3-3.1-1
				c-0.9-0.7-1.9-2-3.1-3.7l-5.1-7.5h-2.1v6.1c0,1.1,0.1,1.8,0.3,2.2c0.2,0.4,0.7,0.7,1.4,0.8l1.5,0.3l0,2.4h-11.8v-2.4l1.3-0.3
				c0.8-0.2,1.3-0.4,1.5-0.8c0.2-0.4,0.3-1.1,0.3-2.2V43.5c0-1.1-0.1-1.8-0.3-2.2c-0.2-0.4-0.7-0.7-1.4-0.8l-1.3-0.3v-2.4h11.7
				c3.4,0,6.1,0.7,8.1,2.1c2,1.4,3,3.3,3,5.7c0,1.7-0.6,3.2-1.7,4.5c-1.1,1.3-2.7,2.3-4.8,2.9l4.6,6.6c0.9,1.2,1.5,1.9,1.9,2.3
				c0.4,0.3,0.9,0.5,1.4,0.5C186.8,62.2,187.3,62.1,187.7,61.9z M170.5,51h2.4c2,0,3.5-0.4,4.4-1.3c0.9-0.9,1.4-2.2,1.4-3.9
				c0-1.9-0.5-3.3-1.4-4.2c-0.9-0.9-2.4-1.3-4.4-1.3h-2.4V51z"/>
			<path class="st0" d="M218.8,37.7l0,2.4l-1.6,0.5c-0.9,0.3-1.5,0.6-1.7,1.1c-0.2,0.5-0.4,1.5-0.4,3v9.7c0,3.8-1,6.7-3,8.6
				s-4.9,2.9-8.6,2.9c-4,0-7-0.9-9-2.8c-2-1.9-3-4.8-3-8.7V43.4c0-1.1-0.1-1.8-0.3-2.2c-0.2-0.3-0.7-0.6-1.5-0.8l-1.3-0.3v-2.4h11.8
				l0,2.4l-1.5,0.3c-0.7,0.1-1.2,0.4-1.4,0.8c-0.3,0.4-0.4,1.2-0.4,2.3v10.7c0,2.9,0.7,5.1,2,6.5c1.3,1.4,3.1,2.1,5.5,2.1
				c2.5,0,4.3-0.7,5.5-2c1.2-1.3,1.8-3.5,1.8-6.5v-9.4c0-1.6-0.2-2.6-0.5-3c-0.3-0.4-1.1-0.8-2.3-1.2l-1.5-0.4v-2.4H218.8z"/>
			<path class="st0" d="M247.6,51.2c0,4.3-1.3,7.8-4,10.4c-2.7,2.6-6.2,4-10.7,4h-11.8v-2.4l1.3-0.3c0.8-0.2,1.3-0.4,1.5-0.8
				c0.2-0.4,0.3-1.1,0.3-2.2V43.5c0-1.1-0.1-1.8-0.3-2.2c-0.2-0.4-0.7-0.7-1.4-0.8l-1.3-0.3v-2.4H233c4.5,0,8.1,1.2,10.7,3.6
				S247.6,47.1,247.6,51.2z M241.3,51.4c0-7.4-3-11.1-9-11.1h-2.6v22c0.9,0.4,2.3,0.6,3.9,0.6c2.5,0,4.4-1,5.7-3
				C240.7,57.9,241.3,55.1,241.3,51.4z"/>
			<path class="st0" d="M261.3,62.8l1.5,0.3l0,2.4h-11.8v-2.4l1.4-0.3c0.8-0.2,1.3-0.4,1.5-0.8c0.2-0.4,0.3-1.1,0.3-2.2V43.5
				c0-1.1-0.1-1.8-0.3-2.2c-0.2-0.4-0.7-0.7-1.5-0.9l-1.4-0.3v-2.4h11.8l0,2.4l-1.5,0.3c-0.7,0.1-1.1,0.4-1.4,0.8
				c-0.2,0.4-0.3,1.1-0.3,2.2v16.3c0,1.1,0.1,1.8,0.3,2.2C260.2,62.4,260.6,62.7,261.3,62.8z"/>
			<path class="st0" d="M290.4,37.7l0.7,8.4l-2.7,0.4c-0.6-1.7-1.1-3.1-1.5-4c-0.4-0.8-0.9-1.4-1.5-1.7c-0.6-0.4-1.5-0.5-2.6-0.5
				h-1.8v19.5c0,1.1,0.1,1.9,0.4,2.2c0.2,0.4,0.8,0.6,1.7,0.8l1.9,0.4l0,2.4h-13.2v-2.4l1.7-0.4c0.9-0.2,1.5-0.4,1.8-0.8
				c0.3-0.3,0.4-1.1,0.4-2.2V40.3h-2c-1.1,0-2,0.2-2.6,0.6c-0.6,0.3-1,0.9-1.4,1.7c-0.4,0.8-0.9,2.1-1.5,4.1l-2.6-0.4l0.7-8.4H290.4
				z"/>
			<path class="st0" d="M319.3,62.7l1.5,0.4v2.4h-12.1l0-2.4l1.6-0.3c0.9-0.1,1.3-0.5,1.3-1.2c0-0.4-0.2-1.2-0.6-2.5l-1-2.7h-9.8
				l-0.5,1.2c-0.6,1.7-0.9,2.8-0.9,3.4c0,0.8,0.5,1.4,1.6,1.7l1.4,0.4v2.4H291v-2.4l1-0.4c1-0.4,1.8-0.9,2.4-1.6
				c0.6-0.7,1.2-1.9,1.9-3.6l8.1-20.4h4.3l7.7,21.3l0.4,1.2c0.3,1.1,0.7,1.9,1,2.3C318.2,62.3,318.6,62.6,319.3,62.7z M301.3,53.4
				h7.7l-3.8-10.6L301.3,53.4z"/>
		</g>
		<g>
			<path class="st1" d="M133.9,69h4.4v0.5h-0.9c-0.2,0-0.4,0-0.5,0.1c-0.1,0.1-0.1,0.2-0.1,0.4v5.4c0,0.6,0,1,0.1,1.3
				c0.1,0.4,0.4,0.8,0.8,1c0.4,0.3,0.9,0.4,1.5,0.4c0.9,0,1.5-0.2,2-0.7s0.7-1.1,0.7-1.8v-4.4c0-0.4,0-0.7-0.1-0.9
				c-0.1-0.2-0.1-0.4-0.2-0.5s-0.2-0.2-0.4-0.2c-0.2-0.1-0.4-0.1-0.8-0.1V69h3.6v0.5h-0.3c-0.4,0-0.7,0.1-0.9,0.3s-0.3,0.5-0.3,1
				v4.7c0,1-0.3,1.8-0.9,2.4c-0.7,0.6-1.5,0.9-2.6,0.9c-1,0-1.7-0.1-2.2-0.4c-0.5-0.3-0.9-0.7-1.2-1.2c-0.2-0.4-0.3-0.9-0.3-1.5
				v-5.8c0-0.1-0.1-0.3-0.2-0.3c-0.1-0.1-0.3-0.1-0.5-0.1h-0.9V69z"/>
			<path class="st1" d="M148.3,69l2.4-0.1v8.3c0,0.3,0.1,0.6,0.2,0.7c0.1,0.1,0.3,0.2,0.6,0.2h0.4v0.5h-2.1l-0.2-1.2
				c-0.2,0.4-0.5,0.8-0.9,1c-0.3,0.2-0.7,0.3-1.1,0.3c-0.7,0-1.3-0.3-1.8-0.9c-0.5-0.6-0.7-1.3-0.7-2.3c0-1,0.3-1.9,0.9-2.5
				c0.5-0.5,1.1-0.7,1.7-0.7c0.4,0,0.7,0.1,1,0.3c0.3,0.2,0.6,0.5,0.8,0.9V70c0-0.2-0.1-0.3-0.2-0.4c-0.1-0.1-0.4-0.2-0.7-0.2h-0.4
				V69z M147.9,72.8c-0.5,0-0.8,0.2-1.1,0.6c-0.3,0.4-0.4,1-0.4,1.9c0,1,0.1,1.7,0.4,2.1c0.3,0.4,0.6,0.6,1.1,0.6
				c0.5,0,0.9-0.2,1.2-0.7c0.3-0.5,0.5-1.1,0.5-2c0-0.8-0.2-1.5-0.5-1.9C148.7,73,148.4,72.8,147.9,72.8z"/>
			<path class="st1" d="M152.4,72.5l2.2-0.1v2.5c0.2-0.8,0.5-1.4,0.8-1.8s0.7-0.6,1.2-0.6c0.3,0,0.6,0.1,0.8,0.3
				c0.2,0.2,0.3,0.5,0.3,0.8c0,0.3-0.1,0.5-0.2,0.6c-0.1,0.2-0.3,0.2-0.5,0.2c-0.2,0-0.4-0.1-0.5-0.2s-0.2-0.3-0.2-0.5
				c0-0.1,0-0.3,0.1-0.4c0.1-0.1,0.1-0.2,0.1-0.2c0-0.1,0-0.1-0.1-0.1c-0.2,0-0.4,0.1-0.6,0.3c-0.3,0.3-0.6,0.7-0.7,1.2
				c-0.3,0.8-0.4,1.4-0.4,1.9v1.3c0,0.1,0.1,0.3,0.2,0.3s0.3,0.1,0.5,0.1h0.8v0.5h-3.8v-0.5h0.6c0.2,0,0.4,0,0.5-0.1
				s0.2-0.2,0.2-0.3v-3.9c0-0.3-0.1-0.5-0.2-0.6c-0.1-0.1-0.3-0.2-0.5-0.2h-0.5V72.5z"/>
			<path class="st1" d="M160.5,72.4v4c0,0.5,0.1,0.9,0.4,1.1s0.6,0.4,1,0.4c0.5,0,0.9-0.2,1.2-0.6c0.3-0.4,0.5-0.9,0.5-1.5v-2.3
				c0-0.2-0.1-0.4-0.2-0.5c-0.1-0.1-0.4-0.2-0.9-0.2v-0.5l2.1-0.1v5c0,0.2,0.1,0.4,0.2,0.5c0.1,0.1,0.3,0.2,0.5,0.2h0.4v0.4l-2,0
				l-0.1-1.2c-0.4,0.4-0.7,0.8-1.1,1c-0.4,0.2-0.7,0.3-1.1,0.3c-0.5,0-1-0.2-1.4-0.6c-0.4-0.4-0.6-1-0.6-1.9v-2.6
				c0-0.2-0.1-0.4-0.3-0.5c-0.1-0.1-0.4-0.1-0.8-0.1v-0.5L160.5,72.4z"/>
			<path class="st1" d="M167,72.5h4.8v0.4l-3.8,5.2h1.9c0.4,0,0.8-0.1,1-0.4s0.5-0.8,0.6-1.5h0.4l-0.1,2.4h-5.1v-0.4l3.8-5.2h-1.6
				c-0.3,0-0.6,0-0.8,0.1c-0.2,0.1-0.3,0.2-0.4,0.5c-0.1,0.2-0.2,0.6-0.3,1.1h-0.5L167,72.5z M167.7,68.8h0.4l1.4,1.3l1.4-1.3h0.4
				l-1.6,2.3h-0.6L167.7,68.8z"/>
			<path class="st1" d="M178.6,75.6h-4.4c0,0.9,0.2,1.6,0.5,2c0.4,0.4,0.8,0.6,1.4,0.6c0.8,0,1.5-0.5,2-1.4l0.4,0.2
				c-0.6,1.2-1.5,1.8-2.7,1.8c-0.8,0-1.5-0.3-2.1-0.9c-0.6-0.6-0.8-1.3-0.8-2.3c0-1,0.3-1.8,0.8-2.4s1.2-0.9,2-0.9
				c0.6,0,1.1,0.2,1.5,0.5s0.8,0.7,1,1.3C178.5,74.4,178.6,75,178.6,75.6z M174.2,75.1h2.6c0.2,0,0.3-0.1,0.4-0.2
				c0.1-0.1,0.1-0.3,0.1-0.5c0-0.5-0.1-0.9-0.4-1.2c-0.3-0.3-0.6-0.5-1-0.5c-0.5,0-0.8,0.2-1.1,0.6
				C174.4,73.7,174.3,74.3,174.2,75.1z"/>
			<path class="st1" d="M179.5,72.5l2-0.1c0.1,0.4,0.1,0.8,0.2,1.3c0.3-0.4,0.6-0.8,1-1s0.8-0.3,1.3-0.3c0.4,0,0.7,0.1,1,0.2
				s0.5,0.4,0.7,0.8c0.2,0.3,0.2,0.7,0.2,1.1v3c0,0.2,0,0.4,0.1,0.5s0.3,0.1,0.5,0.1h0.4v0.5h-3.2v-0.5h0.3c0.3,0,0.5,0,0.6-0.1
				c0.1-0.1,0.2-0.2,0.2-0.4v-2.6c0-0.6-0.1-1-0.3-1.3c-0.2-0.4-0.6-0.6-1.1-0.6c-0.5,0-0.9,0.2-1.2,0.6c-0.3,0.4-0.5,0.9-0.5,1.5
				v2.3c0,0.2,0.1,0.4,0.2,0.5s0.3,0.1,0.5,0.1h0.4v0.5h-3.2v-0.5h0.4c0.2,0,0.4,0,0.5-0.1s0.2-0.2,0.2-0.3v-3.9
				c0-0.3-0.1-0.5-0.2-0.6c-0.1-0.1-0.3-0.2-0.6-0.2h-0.3V72.5z"/>
			<path class="st1" d="M190,72.4v5.8c0,0.8-0.2,1.6-0.7,2.1c-0.5,0.6-1,0.8-1.5,0.8c-0.3,0-0.5-0.1-0.7-0.2s-0.2-0.3-0.2-0.6
				c0-0.2,0.1-0.4,0.2-0.5c0.1-0.1,0.3-0.2,0.5-0.2c0.3,0,0.5,0.2,0.6,0.6c0,0.1,0.1,0.2,0.1,0.2s0.1,0,0.1,0c0.1,0,0.2,0,0.2-0.1
				c0.1-0.1,0.2-0.3,0.2-0.6c0.1-0.4,0.1-0.7,0.1-1.1v-5.1c0-0.2-0.1-0.4-0.2-0.5c-0.1-0.1-0.4-0.2-0.7-0.2h-0.6v-0.5L190,72.4z
				 M189.3,68.8c0.2,0,0.4,0.1,0.5,0.2s0.2,0.3,0.2,0.5c0,0.2-0.1,0.4-0.2,0.5s-0.3,0.2-0.5,0.2c-0.2,0-0.4-0.1-0.5-0.2
				c-0.1-0.1-0.2-0.3-0.2-0.5c0-0.2,0.1-0.4,0.2-0.5C188.9,68.9,189.1,68.8,189.3,68.8z"/>
			<path class="st1" d="M197.3,75.6H193c0,0.9,0.2,1.6,0.5,2c0.4,0.4,0.8,0.6,1.4,0.6c0.8,0,1.5-0.5,2-1.4l0.4,0.2
				c-0.6,1.2-1.5,1.8-2.7,1.8c-0.8,0-1.5-0.3-2.1-0.9c-0.6-0.6-0.8-1.3-0.8-2.3c0-1,0.3-1.8,0.8-2.4s1.2-0.9,2-0.9
				c0.6,0,1.1,0.2,1.5,0.5s0.8,0.7,1,1.3C197.2,74.4,197.3,75,197.3,75.6z M193,75.1h2.6c0.2,0,0.3-0.1,0.4-0.2
				c0.1-0.1,0.1-0.3,0.1-0.5c0-0.5-0.1-0.9-0.4-1.2c-0.3-0.3-0.6-0.5-1-0.5c-0.5,0-0.8,0.2-1.1,0.6C193.1,73.7,193,74.3,193,75.1z"
				/>
			<path class="st1" d="M206.6,72.8c0.4-0.4,0.8-0.7,1.2-0.7c0.2,0,0.4,0.1,0.5,0.2c0.1,0.1,0.2,0.3,0.2,0.5c0,0.2,0,0.3-0.1,0.4
				c-0.1,0.1-0.2,0.2-0.3,0.2c-0.2,0-0.4-0.2-0.5-0.5c0-0.1-0.1-0.2-0.2-0.2c-0.1,0-0.3,0.1-0.5,0.3c0.2,0.3,0.3,0.5,0.4,0.7
				s0.1,0.4,0.1,0.6c0,0.4-0.1,0.7-0.3,1c-0.2,0.3-0.5,0.5-0.9,0.8c-0.4,0.2-0.8,0.3-1.2,0.3h-0.7c-0.5,0-0.8,0.1-1,0.2
				c-0.2,0.1-0.2,0.3-0.2,0.5c0,0.2,0.1,0.3,0.2,0.4c0.1,0.1,0.4,0.1,0.8,0.1l1.6,0c0.8,0,1.4,0.1,1.8,0.4s0.5,0.6,0.5,1.1
				c0,0.5-0.2,1-0.6,1.3c-0.6,0.5-1.4,0.8-2.5,0.8c-0.9,0-1.6-0.2-2.1-0.5c-0.4-0.3-0.5-0.6-0.5-0.9c0-0.3,0.1-0.5,0.3-0.7
				c0.2-0.2,0.6-0.4,1.1-0.5c-0.4-0.1-0.8-0.3-1-0.5s-0.3-0.5-0.3-0.8c0-0.3,0.1-0.5,0.3-0.7c0.2-0.2,0.5-0.4,0.9-0.5
				c-0.4-0.2-0.6-0.4-0.8-0.7c-0.2-0.3-0.3-0.6-0.3-1c0-0.6,0.2-1.1,0.7-1.5c0.5-0.4,1.1-0.6,1.8-0.6c0.3,0,0.6,0,0.9,0.1
				C206.1,72.5,206.4,72.6,206.6,72.8z M205.3,78.6c-0.8,0-1.4,0.1-1.7,0.3s-0.5,0.5-0.5,0.8c0,0.3,0.1,0.5,0.4,0.7
				c0.3,0.2,0.8,0.3,1.4,0.3c0.7,0,1.3-0.1,1.7-0.4s0.6-0.5,0.6-0.8c0-0.2-0.1-0.3-0.2-0.5c-0.1-0.2-0.3-0.3-0.6-0.4
				S205.8,78.6,205.3,78.6z M204.9,72.7c-0.4,0-0.7,0.1-1,0.4c-0.3,0.3-0.4,0.7-0.4,1.2c0,0.5,0.1,1,0.4,1.3c0.3,0.3,0.6,0.5,1,0.5
				s0.7-0.1,1-0.4c0.2-0.3,0.4-0.7,0.4-1.3c0-0.5-0.1-0.9-0.4-1.2C205.6,72.9,205.3,72.7,204.9,72.7z"/>
			<path class="st1" d="M209,72.5l2.2-0.1v2.5c0.2-0.8,0.5-1.4,0.8-1.8s0.7-0.6,1.2-0.6c0.3,0,0.6,0.1,0.8,0.3
				c0.2,0.2,0.3,0.5,0.3,0.8c0,0.3-0.1,0.5-0.2,0.6c-0.1,0.2-0.3,0.2-0.5,0.2c-0.2,0-0.4-0.1-0.5-0.2s-0.2-0.3-0.2-0.5
				c0-0.1,0-0.3,0.1-0.4c0.1-0.1,0.1-0.2,0.1-0.2c0-0.1,0-0.1-0.1-0.1c-0.2,0-0.4,0.1-0.6,0.3c-0.3,0.3-0.6,0.7-0.7,1.2
				c-0.3,0.8-0.4,1.4-0.4,1.9v1.3c0,0.1,0.1,0.3,0.2,0.3c0.1,0.1,0.3,0.1,0.5,0.1h0.8v0.5H209v-0.5h0.6c0.2,0,0.4,0,0.5-0.1
				c0.1-0.1,0.2-0.2,0.2-0.3v-3.9c0-0.3-0.1-0.5-0.2-0.6c-0.1-0.1-0.3-0.2-0.5-0.2H209V72.5z"/>
			<path class="st1" d="M221.4,77.9l0.2,0.4c-0.3,0.3-0.7,0.5-1.1,0.5c-0.3,0-0.5-0.1-0.7-0.2s-0.4-0.4-0.5-0.8
				c-0.4,0.4-0.8,0.7-1.1,0.9c-0.3,0.1-0.7,0.2-1.1,0.2c-0.6,0-1.1-0.1-1.4-0.4c-0.3-0.3-0.5-0.6-0.5-1c0-0.6,0.4-1.2,1.1-1.6
				c0.7-0.4,1.7-0.7,3-0.8V74c0-0.3-0.1-0.6-0.4-0.8c-0.3-0.2-0.6-0.4-1-0.4c-0.4,0-0.7,0.1-1,0.2c-0.2,0.1-0.3,0.2-0.3,0.3
				c0,0.1,0.1,0.2,0.2,0.3c0.1,0.2,0.2,0.3,0.2,0.5c0,0.2-0.1,0.4-0.2,0.5c-0.1,0.1-0.3,0.2-0.5,0.2c-0.2,0-0.4-0.1-0.5-0.2
				c-0.1-0.1-0.2-0.3-0.2-0.6c0-0.4,0.2-0.8,0.7-1.2c0.5-0.4,1.1-0.5,1.9-0.5c0.7,0,1.3,0.2,1.7,0.5c0.4,0.3,0.6,0.7,0.6,1.2v3.3
				c0,0.3,0,0.5,0.1,0.6c0.1,0.1,0.2,0.2,0.4,0.2C221.1,78.1,221.3,78,221.4,77.9z M219.3,75.3c-1.1,0.2-1.9,0.4-2.3,0.7
				c-0.3,0.3-0.5,0.6-0.5,1.1c0,0.3,0.1,0.6,0.3,0.8s0.4,0.3,0.7,0.3c0.5,0,1-0.2,1.3-0.6c0.4-0.4,0.6-0.9,0.6-1.5V75.3z"/>
			<path class="st1" d="M225.9,69l2.4-0.1v1.9h1.2v0.5h-1.2v6c0,0.3,0.1,0.6,0.2,0.7c0.1,0.1,0.3,0.2,0.6,0.2h0.4v0.5h-2.1l-0.2-1.2
				c-0.2,0.4-0.5,0.8-0.9,1c-0.3,0.2-0.7,0.3-1.1,0.3c-0.7,0-1.3-0.3-1.8-0.9c-0.5-0.6-0.7-1.3-0.7-2.3c0-1,0.3-1.9,0.9-2.5
				c0.5-0.5,1.1-0.7,1.7-0.7c0.4,0,0.7,0.1,1,0.3c0.3,0.2,0.6,0.5,0.8,0.9v-2.3l-2.2,0v-0.5h2.2V70c0-0.2-0.1-0.3-0.2-0.4
				c-0.1-0.1-0.4-0.2-0.7-0.2h-0.4V69z M225.5,72.8c-0.5,0-0.8,0.2-1.1,0.6c-0.3,0.4-0.4,1-0.4,1.9c0,1,0.1,1.7,0.4,2.1
				c0.3,0.4,0.6,0.6,1.1,0.6c0.5,0,0.9-0.2,1.2-0.7c0.3-0.5,0.5-1.1,0.5-2c0-0.8-0.2-1.5-0.5-1.9C226.3,73,225.9,72.8,225.5,72.8z"
				/>
			<path class="st1" d="M236.5,77.9l0.2,0.4c-0.3,0.3-0.7,0.5-1.1,0.5c-0.3,0-0.5-0.1-0.7-0.2s-0.4-0.4-0.5-0.8
				c-0.4,0.4-0.8,0.7-1.1,0.9c-0.3,0.1-0.7,0.2-1.1,0.2c-0.6,0-1.1-0.1-1.4-0.4c-0.3-0.3-0.5-0.6-0.5-1c0-0.6,0.4-1.2,1.1-1.6
				c0.7-0.4,1.7-0.7,3-0.8V74c0-0.3-0.1-0.6-0.4-0.8c-0.3-0.2-0.6-0.4-1-0.4c-0.4,0-0.7,0.1-1,0.2c-0.2,0.1-0.3,0.2-0.3,0.3
				c0,0.1,0.1,0.2,0.2,0.3c0.1,0.2,0.2,0.3,0.2,0.5c0,0.2-0.1,0.4-0.2,0.5c-0.1,0.1-0.3,0.2-0.5,0.2c-0.2,0-0.4-0.1-0.5-0.2
				c-0.1-0.1-0.2-0.3-0.2-0.6c0-0.4,0.2-0.8,0.7-1.2c0.5-0.4,1.1-0.5,1.9-0.5c0.7,0,1.3,0.2,1.7,0.5c0.4,0.3,0.6,0.7,0.6,1.2v3.3
				c0,0.3,0,0.5,0.1,0.6c0.1,0.1,0.2,0.2,0.4,0.2C236.1,78.1,236.3,78,236.5,77.9z M234.4,75.3c-1.1,0.2-1.9,0.4-2.3,0.7
				c-0.3,0.3-0.5,0.6-0.5,1.1c0,0.3,0.1,0.6,0.3,0.8s0.4,0.3,0.7,0.3c0.5,0,1-0.2,1.3-0.6c0.4-0.4,0.6-0.9,0.6-1.5V75.3z"/>
			<path class="st1" d="M237.4,72.5l2-0.1c0.1,0.4,0.1,0.8,0.2,1.3c0.3-0.4,0.6-0.8,1-1s0.8-0.3,1.3-0.3c0.4,0,0.7,0.1,1,0.2
				s0.5,0.4,0.7,0.8c0.2,0.3,0.2,0.7,0.2,1.1v3c0,0.2,0,0.4,0.1,0.5s0.3,0.1,0.5,0.1h0.4v0.5h-3.2v-0.5h0.3c0.3,0,0.5,0,0.6-0.1
				c0.1-0.1,0.2-0.2,0.2-0.4v-2.6c0-0.6-0.1-1-0.3-1.3c-0.2-0.4-0.6-0.6-1.1-0.6c-0.5,0-0.9,0.2-1.2,0.6c-0.3,0.4-0.5,0.9-0.5,1.5
				v2.3c0,0.2,0.1,0.4,0.2,0.5s0.3,0.1,0.5,0.1h0.4v0.5h-3.2v-0.5h0.4c0.2,0,0.4,0,0.5-0.1s0.2-0.2,0.2-0.3v-3.9
				c0-0.3-0.1-0.5-0.2-0.6c-0.1-0.1-0.3-0.2-0.6-0.2h-0.3V72.5z"/>
			<path class="st1" d="M252,77.9l0.2,0.4c-0.3,0.3-0.7,0.5-1.1,0.5c-0.3,0-0.5-0.1-0.7-0.2s-0.4-0.4-0.5-0.8
				c-0.4,0.4-0.8,0.7-1.1,0.9c-0.3,0.1-0.7,0.2-1.1,0.2c-0.6,0-1.1-0.1-1.4-0.4c-0.3-0.3-0.5-0.6-0.5-1c0-0.6,0.4-1.2,1.1-1.6
				c0.7-0.4,1.7-0.7,3-0.8V74c0-0.3-0.1-0.6-0.4-0.8c-0.3-0.2-0.6-0.4-1-0.4c-0.4,0-0.7,0.1-1,0.2c-0.2,0.1-0.3,0.2-0.3,0.3
				c0,0.1,0.1,0.2,0.2,0.3c0.1,0.2,0.2,0.3,0.2,0.5c0,0.2-0.1,0.4-0.2,0.5c-0.1,0.1-0.3,0.2-0.5,0.2c-0.2,0-0.4-0.1-0.5-0.2
				c-0.1-0.1-0.2-0.3-0.2-0.6c0-0.4,0.2-0.8,0.7-1.2c0.5-0.4,1.1-0.5,1.9-0.5c0.7,0,1.3,0.2,1.7,0.5c0.4,0.3,0.6,0.7,0.6,1.2v3.3
				c0,0.3,0,0.5,0.1,0.6c0.1,0.1,0.2,0.2,0.4,0.2C251.6,78.1,251.8,78,252,77.9z M249.9,75.3c-1.1,0.2-1.9,0.4-2.3,0.7
				c-0.3,0.3-0.5,0.6-0.5,1.1c0,0.3,0.1,0.6,0.3,0.8s0.4,0.3,0.7,0.3c0.5,0,1-0.2,1.3-0.6c0.4-0.4,0.6-0.9,0.6-1.5V75.3z"/>
		</g>
	</g>
	<g>
		<g>
			<path class="st0" d="M102.3,16.3c-0.2,0.9,0.1,1.8,0.5,2.6c0.8,1.8,2.1,3.4,3.7,4.5c0.8,0.6,1.6,1.1,2.6,1.5
				c0.3,0.2,0.8,0.3,1.2,0.5v41.5c0,7.6-2.3,14.6-6.2,20.4c-0.1-0.2-0.2-0.3-0.3-0.4c-0.2-0.1-0.5,0-0.7,0c-0.7,0.3-1.2,0.8-1.6,1.4
				c-1.3,1.6-2.4,3.4-2.9,5.4c-1.2,1.2-2.6,2.2-3.9,3.2c-0.7,0.5-1.5,1-2.2,1.5c-5.5,3.2-11.8,5.1-18.7,5.1h0
				c-6.8,0-13.1-1.9-18.6-5.1c-0.8-0.5-1.6-1-2.4-1.5c-1.3-0.9-2.6-1.9-3.8-3c-0.5-2-1.6-3.9-2.9-5.5c-0.5-0.6-1-1.1-1.6-1.4
				c-0.2-0.1-0.5-0.1-0.7,0c-0.2,0.1-0.3,0.2-0.4,0.4c-4-5.8-6.3-12.9-6.3-20.5V25.4c0.5-0.2,0.9-0.4,1.3-0.5
				c0.9-0.4,1.8-0.9,2.6-1.5c1.6-1.2,2.9-2.8,3.7-4.5c0.4-0.8,0.6-1.7,0.4-2.6c-2.2,0.1-4.5,0.7-6,2.2c-0.5,0.5-0.9,1-1.2,1.5
				c-0.2,0.3-0.5,0.6-0.7,0.9v-6.3h73.2v6.2c-0.2-0.3-0.4-0.6-0.6-0.8c-0.4-0.5-0.8-1.1-1.3-1.5C106.8,17,104.5,16.4,102.3,16.3z"/>
			<path class="st0" d="M44.5,18.9c-0.8,1.8-2.1,3.4-3.7,4.5c-0.8,0.6-1.6,1.1-2.6,1.5c-0.4,0.2-0.8,0.4-1.3,0.5V21
				c0.2-0.3,0.5-0.6,0.7-0.9c0.4-0.5,0.8-1.1,1.2-1.5c1.6-1.5,3.9-2.1,6-2.2C45.2,17.2,44.9,18.1,44.5,18.9z"/>
			<path class="st0" d="M48.9,93.8c-2.1-1.9-4-4.1-5.6-6.5c0.1-0.2,0.2-0.3,0.4-0.4c0.2-0.1,0.5,0,0.7,0c0.7,0.3,1.2,0.8,1.6,1.4
				C47.3,90,48.4,91.8,48.9,93.8z"/>
			<path class="st0" d="M104,87.3c-1.6,2.4-3.5,4.5-5.5,6.5c0.5-2,1.6-3.8,2.9-5.4c0.5-0.6,1-1.1,1.6-1.4c0.2-0.1,0.5-0.1,0.7,0
				C103.8,87,103.9,87.2,104,87.3z"/>
			<path class="st0" d="M110.2,20.9v4.5c-0.5-0.2-0.9-0.3-1.2-0.5c-0.9-0.4-1.8-0.9-2.6-1.5c-1.6-1.2-2.9-2.8-3.7-4.5
				c-0.4-0.8-0.6-1.7-0.5-2.6c2.2,0.1,4.5,0.7,6,2.2c0.5,0.5,0.9,1,1.3,1.5C109.8,20.3,110,20.6,110.2,20.9z"/>
			<g>
				<path class="st2" d="M131.5,58.9c-0.8,1.7-1.8,3.3-3.1,4.7c-1.3,1.3-3,2.3-4.9,2.5c0,0,0,0-0.1,0c0,0.2-0.1,0.3-0.1,0.5
					c-1,3.6-2.4,7.1-4.1,10.3c0.8-0.7,1.8-1.2,2.8-1.6c0.8-0.3,1.6-0.6,2.5-0.6c0.4,0,0.8,0,1.1,0.1c0.3,0.2,0.6,0.5,0.7,0.8
					c0,0.3-0.1,0.6-0.3,0.9c-1,1.9-2.7,3.5-4.8,4.2c-1.1,0.4-2.3,0.5-3.5,0.6c-0.3,0-0.7,0-1-0.2c-2.4,3.6-5.2,6.7-8.4,9.4
					c2.3-0.7,5-0.7,7.3-0.3c0.2,0,0.4,0.1,0.5,0.2c0.2,0.2,0.3,0.5,0.2,0.8c-0.1,0.3-0.3,0.5-0.5,0.7c-1.3,1.3-3.2,2-5,2.1
					c-1.8,0.2-3.7-0.2-5.5-0.8c-0.1,0-0.2-0.1-0.3-0.2c-3.9,2.7-8.2,4.6-12.6,5.6l0-0.2c0.8-0.5,1.5-0.9,2.2-1.5
					c1.2-0.4,2.4-0.8,3.6-1.4c0.1-0.6,0.2-1.2,0.3-1.8c0.5-2,1.6-3.8,2.9-5.4c0.5-0.6,1-1.1,1.6-1.4c0.2-0.1,0.5-0.1,0.7,0
					c0.2,0.1,0.3,0.2,0.3,0.4c0.1,0.2,0.1,0.4,0.1,0.6c0,1.2-0.6,2.4-1.3,3.5c-0.4,0.8-0.9,1.8-1.4,2.6c2.6-1.5,5.1-3.3,7.4-5.4
					c-0.2-2,0.1-2.9,0.5-5c0.1-0.4,0.7-2.2,0.8-2.6c0.2-0.7,0.7-1.3,1.1-1.9c0.3-0.4,0.8-1.2,1.3-1.4c0.6-0.2,0.8,0.5,0.8,1
					c0,1.1-0.3,2.2-0.5,3.2c-0.2,0.8-0.4,1.7-0.6,2.5c-0.1,0.3-0.2,0.7-0.3,1c3.1-3.5,5.7-7.5,7.7-11.9c0,0,0,0,0,0
					c-0.1,0-0.2-0.1-0.2-0.2c-0.8-1.5-1.5-3.1-1.8-4.8c-0.2-1.5-0.2-3-0.1-4.5c0-0.7,0.1-1.4,0.1-2.1c0-0.4,0.1-0.9,0.2-1.3
					c0.2-0.4,0.5-0.8,1-0.8c0.1,0,0.2,0,0.3,0.1c0.1,0,0.1,0.1,0.1,0.2c0.7,1.1,1.4,2.3,1.6,3.6c0.1,0.6,0.1,1.2,0.1,1.8
					c0,1.5,0,3,0.1,4.4c0.4-1.2,0.8-2.3,1.1-3.5c0.8-3,1.3-6,1.5-9c-0.2,0.1-0.5-0.1-0.7-0.2c-1.5-1.1-2.6-2.5-3.4-4.1
					c-0.9-1.6-1.4-3.3-1.9-5.1c-0.2-0.6-0.2-1.3,0.2-1.7c0.4-0.4,1-0.3,1.4-0.1s0.7,0.7,1,1.1c0.5,0.7,0.9,1.3,1.3,2
					c0.7,1,1.4,2,2,3.1c-0.3-4.1-1.1-8.1-2.6-12c-0.2,0.1-0.4,0.2-0.6,0.3c-0.3,0-0.6,0-0.9-0.1c-3.1-0.8-6.1-2.5-7.9-5.2
					c-0.3-0.5-0.7-1.2-0.6-1.8c0-0.1,0-0.2,0.1-0.3c0.1-0.1,0.3-0.1,0.5-0.1c0.8,0,1.5,0.2,2.2,0.6c0.6,0.3,1.1,0.6,1.6,1
					c1.1,0.7,2.3,1.4,3.6,2c0.1,0,0.2,0.1,0.4,0.1c-1.9-3.9-4.5-7.6-7.6-11c0,0,0,0,0,0c-0.5,0.1-1.1-0.1-1.6-0.2
					c-0.5-0.2-0.9-0.3-1.2-0.5c-0.9-0.4-1.8-0.9-2.6-1.5c-1.6-1.2-2.9-2.8-3.7-4.5c-0.4-0.8-0.6-1.7-0.5-2.6c2.2,0.1,4.5,0.7,6,2.2
					c0.5,0.5,0.9,1,1.3,1.5c0.2,0.3,0.4,0.6,0.6,0.8c0.3,0.4,0.6,0.8,0.9,1.3c0.2,0.3,0.5,0.7,0.7,1c0.2,0.4,0.6,1.1,0.6,1.7
					c2.2,2.3,4,4.8,5.6,7.3c-0.2-1.3-0.3-2.7-0.5-4c-0.1-0.7-0.2-1.4-0.2-2c0-0.7,0-1.3,0.1-2c0.1-1.7,0.2-3.5,0.8-5.1
					c0.3-0.1,0.7,0.1,1,0.3c0.2,0.3,0.4,0.6,0.5,1c0.1,0.3,0.2,0.7,0.3,1c0.7,2,1.3,4,1.4,6c0.1,2.1-0.4,4.2-1.7,5.8
					c-0.2,0.2-0.4,0.4-0.7,0.5c2.1,3.7,3.7,7.6,4.7,11.7c0.3-0.8,0.4-1.6,0.5-2.4c0.2-1.7,0.1-3.4,0.2-5.2c0-0.4,0-0.9,0.4-1.2
					c0.3-0.2,0.8-0.1,1.2,0.1c0.6,0.4,1,1,1.2,1.6c0.2,0.6,0.3,1.3,0.4,2c0.1,1.6,0,3.2-0.5,4.8c-0.5,1.5-1.3,3-2.6,4
					c0,0-0.1-0.1-0.1-0.1c0.6,4.4,0.6,8.8-0.2,13.3c0.2-0.2,0.3-0.5,0.5-0.7c1-1.4,2.2-2.6,3.5-3.6c0.8-0.6,1.6-1.1,2.4-1.5
					c0.4-0.2,0.9-0.3,1.2-0.1c0.1,0.1,0.2,0.3,0.2,0.5C132.1,57.6,131.8,58.3,131.5,58.9z"/>
				<path class="st2" d="M55,98.4l0,0.1c-4.5-1-8.7-2.9-12.6-5.6c-0.1,0.1-0.2,0.1-0.3,0.2c-1.8,0.6-3.6,0.9-5.4,0.8
					c-1.8-0.2-3.7-0.8-5-2.1c-0.2-0.2-0.4-0.4-0.5-0.7c-0.1-0.3,0-0.6,0.2-0.8c0.1-0.1,0.3-0.2,0.5-0.2c2.2-0.4,4.9-0.4,7.3,0.3
					c-3.2-2.7-6-5.8-8.4-9.4c-0.2,0.2-0.6,0.2-1,0.2c-1.2-0.1-2.4-0.2-3.5-0.6c-2-0.7-3.7-2.3-4.8-4.2c-0.2-0.3-0.3-0.6-0.3-0.9
					c0-0.4,0.3-0.7,0.7-0.8c0.3-0.1,0.7-0.1,1.1-0.1c0.9,0,1.7,0.3,2.5,0.6c1,0.4,1.9,1,2.8,1.6c-1.7-3.2-3.2-6.7-4.1-10.3
					c0-0.2-0.1-0.3-0.1-0.5c0,0-0.1,0-0.1,0c-1.9-0.2-3.6-1.2-4.9-2.5c-1.3-1.3-2.3-3-3.1-4.7c-0.3-0.6-0.6-1.3-0.5-2
					c0-0.2,0.1-0.4,0.2-0.5c0.3-0.3,0.8-0.1,1.2,0.1c0.9,0.4,1.7,1,2.4,1.5c1.3,1,2.5,2.2,3.5,3.6c0.2,0.2,0.3,0.5,0.5,0.7
					c-0.8-4.5-0.8-9-0.2-13.3c0,0-0.1,0.1-0.1,0.1c-1.2-1-2.1-2.5-2.6-4c-0.5-1.5-0.6-3.2-0.5-4.8c0-0.7,0.1-1.4,0.4-2
					c0.2-0.6,0.6-1.2,1.2-1.6c0.4-0.2,0.8-0.4,1.2-0.1c0.3,0.2,0.4,0.8,0.4,1.2c0,1.7,0,3.4,0.2,5.2c0.1,0.8,0.2,1.6,0.5,2.4
					c1-4,2.5-7.9,4.7-11.7c-0.2-0.1-0.5-0.3-0.7-0.5c-1.4-1.5-1.8-3.7-1.7-5.8c0.1-2.1,0.8-4.1,1.4-6c0.1-0.3,0.2-0.7,0.3-1
					c0.1-0.3,0.2-0.7,0.5-1c0.2-0.3,0.6-0.4,1-0.3c0.6,1.6,0.7,3.4,0.8,5.1c0,0.7,0.1,1.3,0,2c0,0.7-0.1,1.4-0.2,2
					c-0.2,1.3-0.3,2.7-0.5,4c1.6-2.6,3.5-5,5.6-7.3c0.1-0.6,0.5-1.3,0.7-1.7c0.2-0.3,0.4-0.7,0.7-1c0.3-0.4,0.6-0.8,0.8-1.2
					c0.2-0.3,0.5-0.6,0.7-0.9c0.4-0.5,0.8-1.1,1.2-1.5c1.6-1.5,3.9-2.1,6-2.2c0.2,0.9-0.1,1.8-0.4,2.6c-0.8,1.8-2.1,3.4-3.7,4.5
					c-0.8,0.6-1.6,1.1-2.6,1.5c-0.4,0.2-0.8,0.4-1.3,0.5c-0.5,0.2-1.1,0.3-1.5,0.2c0,0,0,0,0,0c-3.1,3.4-5.7,7.1-7.6,11
					c0.1,0,0.2-0.1,0.4-0.1c1.2-0.6,2.5-1.2,3.6-2c0.5-0.3,1-0.7,1.6-1c0.7-0.3,1.4-0.5,2.2-0.6c0.2,0,0.3,0,0.5,0.1
					c0.1,0.1,0.1,0.2,0.1,0.3c0.1,0.6-0.2,1.3-0.6,1.8c-1.8,2.7-4.7,4.4-7.9,5.2c-0.3,0.1-0.6,0.1-0.9,0.1c-0.2,0-0.4-0.1-0.6-0.3
					c-1.5,3.9-2.4,7.9-2.6,12c0.6-1,1.3-2,2-3.1c0.5-0.6,0.9-1.3,1.3-2c0.3-0.4,0.6-0.8,1-1.1s1-0.3,1.4,0.1
					c0.4,0.4,0.3,1.1,0.2,1.7c-0.5,1.7-1,3.5-1.9,5.1s-2,3-3.4,4.1c-0.2,0.1-0.4,0.3-0.7,0.2c0.2,3,0.6,6,1.4,9
					c0.3,1.2,0.7,2.4,1.1,3.5c0.2-1.5,0.1-3,0.1-4.4c0-0.6,0-1.2,0.1-1.8c0.2-1.3,0.9-2.5,1.6-3.6c0-0.1,0.1-0.1,0.2-0.2
					c0.1-0.1,0.2-0.1,0.3-0.1c0.4,0.1,0.8,0.4,1,0.8c0.2,0.4,0.2,0.9,0.2,1.3c0,0.7,0.1,1.4,0.1,2.1c0.1,1.5,0.1,3-0.1,4.5
					c-0.3,1.7-1,3.3-1.8,4.8c0,0.1-0.1,0.2-0.2,0.2c0,0,0,0,0,0c2,4.4,4.6,8.4,7.7,11.9c-0.1-0.3-0.2-0.7-0.3-1
					c-0.2-0.8-0.4-1.7-0.6-2.5c-0.2-1-0.5-2.1-0.5-3.2c0-0.5,0.2-1.2,0.8-1c0.5,0.2,1,1,1.4,1.4c0.4,0.6,0.9,1.2,1.1,1.9
					c0.1,0.4,0.8,2.2,0.8,2.6c0.3,2.1,0.7,3,0.5,5c2.3,2.1,4.8,3.9,7.5,5.4c-0.5-0.8-0.9-1.8-1.4-2.6c-0.6-1.1-1.2-2.2-1.3-3.5
					c0-0.2,0-0.4,0.1-0.5c0.1-0.2,0.2-0.3,0.4-0.4c0.2-0.1,0.5,0,0.7,0c0.7,0.3,1.2,0.8,1.6,1.4c1.3,1.6,2.4,3.5,2.9,5.5
					c0.1,0.6,0.2,1.2,0.3,1.7c1.2,0.5,2.3,0.9,3.5,1.3C53.4,97.4,54.2,98,55,98.4z"/>
			</g>
		</g>
		<path class="st3" d="M101.8,29.8c-0.9-0.6-1.9-1-3-1.3c-4.5-1-9.4-0.9-15.2,1.2C71,34.2,67.2,40,70.1,46.7l1.5,2.5
			c-8.5,2.2-15.5,6.7-21.1,13.1c-5.5,7.2-5.3,13.2,1.8,17.8c6.2,2.9,13.6,4,22.7,1.9c5.6-1.3,10.9-3.9,15.1-7.9
			c4.9-4.8,6.7-9.8,5.8-13.5c-0.5-2-1.7-3.4-3.6-4.1c-0.7-0.2-2-0.5-2.7-0.5c-4.2-0.1-7.3,0.6-10.8,2.7c-2.3,1.4-4.1,3-5.7,4.9
			c-1.7,2-2.7,4.6-2.6,7.2c0,0.4,0,0.7,0.1,1c0.3,1.7,1.7,2.8,3.5,3.1c0.5,0.1,1.2,0.2,1.7-0.4c0.1-0.6,0-0.8-0.7-1.2
			c-0.4-0.2-1.2-0.3-1.5-0.5c-1-0.6-1.3-3.7,0.4-6.4c1.2-1.9,2.8-3.5,4.7-4.7c1.5-1,2.9-1.7,4.1-2.4c1.4-0.8,2.9-1.3,4.5-1.5
			c1.6-0.2,2.9-0.1,3.9,0.5c0.6,0.4,1.2,1.3,1.4,2c1.4,5.1-1.3,9.7-7.1,13.9c-2.4,1.7-5,3.1-7.7,4.1c-7.3,2.7-14.1,2.9-20,1
			c-1.7-0.5-3.2-1.4-4.4-2.7c-3.3-3.6-2.5-8.4,1.3-13.7c3.3-4.6,8.8-9.6,18.2-12.4c2.6,1.5,5.2,2.6,8,3.2c1.9,0.4,4,0.4,5.9-0.1l0,0
			c1.2-0.6,2.3-1.3,3.2-2.2c1.5-2.1,0.9-3.5-1.6-4.2c-4.3-1-9.1-0.4-14.1,1.1c-1.2-1.8-1.3-4.1-0.6-6.7c2.8-5.9,7.9-9.4,14.7-11.2
			c2.4-0.6,4.8-0.9,7.3-0.7c1.7,0.1,3.1,0.5,3.9,1.3c1.7,1.2,1.9,2.9,1.2,4.8c-0.7,1.3-1.4,2.1-2.6,2.7c-0.6,0.3-1.7,0.2-2.5,0.1
			c-0.5-0.1-0.9,0.3-0.9,0.8l0,0c0,0.4,0.3,0.8,0.7,0.8l0.5,0.1c1.5,0.2,3.1-0.1,4.4-0.9c1.3-0.8,2.3-2.1,3-4.1
			C104.3,32.8,103.5,31,101.8,29.8z M84.7,48.8c3.8,0.2,3.4,2.8-0.8,3.1c-2.6,0-5.2-0.8-7.7-2.3C79.4,49,82.4,48.5,84.7,48.8z"/>
	</g>
</g>
</svg>
